<?xml version="1.0" standalone="no"?><!DOCTYPE svg PUBLIC "-//W3C//DTD SVG 1.1//EN" "http://www.w3.org/Graphics/SVG/1.1/DTD/svg11.dtd"><svg t="1783866567453" class="icon" viewBox="0 0 1024 1024" version="1.1" xmlns="http://www.w3.org/2000/svg" p-id="15597" xmlns:xlink="http://www.w3.org/1999/xlink" width="200" height="200"><path d="M701.76 128L232.704 596.992l137.6 24.704a495.744 495.744 0 0 0 428.992-138.688L896 386.24V832a64 64 0 0 1-64 64H192a64 64 0 0 1-64-64V192a64 64 0 0 1 64-64h509.76zM896 263.616V362.88l-55.936-55.808 55.936-43.52z" fill="#B8C5D3" p-id="15598"></path><path d="M288 256h64a32 32 0 0 1 0 64h-64a32 32 0 0 1 0-64zM544 704h192a32 32 0 1 1 0 64h-192a32 32 0 1 1 0-64z" fill="#FFFFFF" p-id="15599"></path><path d="M884.992 35.2a32 32 0 0 1 45.312 0l42.24 42.24a32 32 0 0 1 0 45.312l-3.008 2.56-225.984 175.808 73.6 73.536-63.104 63.104a431.168 431.168 0 0 1-372.48 120.96l-16.96-3.072L884.992 35.2z" fill="#6B7586" p-id="15600"></path></svg>